<?xml version="1.0" encoding="utf-8"?>
<!-- Generator: Adobe Illustrator 16.0.0, SVG Export Plug-In . SVG Version: 6.00 Build 0)  -->
<!DOCTYPE svg PUBLIC "-//W3C//DTD SVG 1.1//EN" "http://www.w3.org/Graphics/SVG/1.1/DTD/svg11.dtd">
<svg version="1.1" id="Livello_1" xmlns="http://www.w3.org/2000/svg" xmlns:xlink="http://www.w3.org/1999/xlink" x="0px" y="0px"
	 width="340.158px" height="487.559px" viewBox="0 0 340.158 487.559" enable-background="new 0 0 340.158 487.559"
	 xml:space="preserve">
<g>
	<g>
		<g>
			<g>
				<g>
					<g>
						<path fill="#FFFFFF" d="M197.716,277.075c-2.814,0-5.121-2.189-5.273-4.994c-0.268-2.276-0.705-9.872,4.211-15.728
							c3.744-4.465,9.421-6.729,16.867-6.729h18.66c4.262,0,7.24-1.021,8.855-3.035c2.688-3.347,1.594-8.952,1.58-9.009l0.014-0.015
							c-0.066-0.339-0.104-0.684-0.104-1.021c0-2.888,2.365-5.235,5.274-5.235c2.431,0,4.531,1.632,5.117,3.972l0.006,0.003
							c0.009,0.028,0.021,0.084,0.031,0.153c0.012,0.034,0.021,0.104,0.033,0.175c0.334,1.73,1.729,10.802-3.724,17.594
							c-3.723,4.634-9.471,6.979-17.094,6.979h-18.656c-4.18,0-7.135,0.994-8.779,2.955c-2.52,3.002-1.801,7.771-1.795,7.813
							l-0.012,0.021c0.045,0.289,0.065,0.559,0.065,0.812C202.999,274.705,200.628,277.075,197.716,277.075z"/>
					</g>
				</g>
				<g>
					<g>
						<g>
							<polygon fill="#F5F5F5" points="109.139,239.222 105.184,239.222 104.925,239.222 100.968,239.222 88.49,226.971 
								88.49,306.082 104.925,306.082 105.184,306.082 121.617,306.082 121.617,226.971 							"/>
						</g>
					</g>
					<g>
						<g>
							<g>
								<path fill="#E73D1F" d="M121.643,307.559H88.517l-1.475-1.477V226.97l2.508-1.052l12.047,11.829h6.966l12.048-11.829
									l2.507,1.052v79.112L121.643,307.559z M89.99,304.605h30.179V230.48l-9.971,9.789l-1.033,0.422h-8.171l-1.033-0.422
									l-9.97-9.789L89.99,304.605L89.99,304.605z"/>
							</g>
						</g>
					</g>
					<g>
						<g>
							<path fill="#E73D1F" d="M105.706,253.562h-0.626h-0.628c-0.567,0-1.026,0.461-1.026,1.023c0,0,1.087,1.938,1.654,1.938
								c0.565,0,1.651-1.938,1.651-1.938C106.732,254.021,106.273,253.562,105.706,253.562z"/>
						</g>
					</g>
					<g>
						<g>
							<polygon fill="#E73D1F" points="115.434,245.424 115.434,250.607 107.683,250.607 							"/>
						</g>
					</g>
					<g>
						<g>
							<polygon fill="#E73D1F" points="94.678,245.424 94.678,250.607 102.428,250.607 							"/>
						</g>
					</g>
					<g>
						<g>
							<path fill="#E73D1F" d="M197.687,276.992c-2.814,0-5.119-2.188-5.271-4.994c-0.268-2.278-0.706-9.872,4.207-15.729
								c3.746-4.463,9.425-6.729,16.871-6.729h18.658c4.26,0,7.24-1.021,8.855-3.034c2.688-3.347,1.594-8.952,1.58-9.01l0.014-0.016
								c-0.066-0.338-0.104-0.682-0.104-1.021c0-2.888,2.367-5.234,5.277-5.234c2.428,0,4.527,1.63,5.115,3.973l0.006,0.002
								c0.012,0.027,0.021,0.083,0.033,0.153c0.01,0.035,0.021,0.104,0.031,0.175c0.334,1.732,1.732,10.802-3.725,17.596
								c-3.721,4.632-9.473,6.979-17.092,6.979h-18.66c-4.183,0-7.135,0.994-8.775,2.957c-2.521,3-1.807,7.768-1.798,7.812
								l-0.015,0.021c0.045,0.291,0.067,0.558,0.067,0.812C202.972,274.621,200.601,276.992,197.687,276.992z M213.492,252.493
								c-6.537,0-11.453,1.905-14.612,5.673c-4.188,4.991-3.763,11.621-3.527,13.531l0.008,0.113c0.058,1.25,1.078,2.229,2.33,2.229
								c1.289,0,2.338-1.05,2.338-2.335c0-0.104-0.014-0.224-0.031-0.359l0.013-0.02c-0.097-0.64-0.827-6.254,2.453-10.162
								c2.229-2.659,5.94-4.008,11.037-4.008h18.656c6.686,0,11.661-1.979,14.794-5.882c4.645-5.777,3.416-13.684,3.123-15.208
								l-0.033-0.149c-0.256-1.025-1.184-1.742-2.258-1.742c-1.282,0-2.328,1.026-2.328,2.287c0,0.146,0.016,0.298,0.046,0.446
								l-0.012,0.018c0.108,0.552,1.335,7.057-2.177,11.429c-2.205,2.744-5.957,4.137-11.155,4.137L213.492,252.493L213.492,252.493
								z"/>
						</g>
					</g>
				</g>
			</g>
			<g>
				<g>
					<g>
						
							<path fill="none" stroke="#4E405E" stroke-width="6" stroke-linecap="square" stroke-linejoin="bevel" stroke-miterlimit="10" d="
							M188.085,256.068"/>
					</g>
				</g>
			</g>
			<g>
				<g>
					<g>
						<g>
							
								<path fill="none" stroke="#4E405E" stroke-width="6" stroke-linecap="square" stroke-linejoin="bevel" stroke-miterlimit="10" d="
								M188.085,256.068"/>
						</g>
					</g>
				</g>
			</g>
		</g>
		<g>
			<g>
				<g>
					<g>
						
							<path fill="none" stroke="#4E405E" stroke-width="6" stroke-linecap="square" stroke-linejoin="bevel" stroke-miterlimit="10" d="
							M188.251,256.145"/>
					</g>
				</g>
			</g>
			<g>
				<g>
					<g>
						
							<path fill="none" stroke="#4E405E" stroke-width="6" stroke-linecap="square" stroke-linejoin="bevel" stroke-miterlimit="10" d="
							M152.451,256.145"/>
					</g>
				</g>
			</g>
			<g>
				<g>
					<g>
						<g>
							
								<path fill="none" stroke="#4E405E" stroke-width="6" stroke-linecap="square" stroke-linejoin="bevel" stroke-miterlimit="10" d="
								M188.251,256.145"/>
						</g>
					</g>
				</g>
				<g>
					<g>
						<g>
							
								<path fill="none" stroke="#4E405E" stroke-width="6" stroke-linecap="square" stroke-linejoin="bevel" stroke-miterlimit="10" d="
								M152.451,256.145"/>
						</g>
					</g>
				</g>
			</g>
		</g>
	</g>
	<g>
		<g>
			<g>
				<g>
					
						<path fill="none" stroke="#4E405E" stroke-width="6" stroke-linecap="square" stroke-linejoin="bevel" stroke-miterlimit="10" d="
						M188.335,256.145"/>
				</g>
			</g>
		</g>
		<g>
			<g>
				<g>
					
						<path fill="none" stroke="#4E405E" stroke-width="6" stroke-linecap="square" stroke-linejoin="bevel" stroke-miterlimit="10" d="
						M152.534,256.145"/>
				</g>
			</g>
		</g>
		<g>
			<path fill="none" d="M241.356,293.438l-43.488-35.816h-5.023l-23.654,41.958l-23.848-41.958h-3.047L98.73,293.493l-5.716,4.149
				c-2.08,2.239-3.222,5.148-3.222,8.215v30.451c0,6.666,5.421,12.086,12.084,12.086h136.405c6.664,0,12.084-5.42,12.084-12.086
				v-30.451c0-3.062-1.143-5.974-3.225-8.215L241.356,293.438z"/>
		</g>
		<g>
			<g>
				<g>
					<g>
						<path fill="#F5F5F5" d="M187.565,257.479l0.234-17.433h-35.506l0.226,17.433H142.32c0.014,0.271,0.036,0.537,0.057,0.808
							c1.065,14.549,13.062,26.021,27.716,26.021c14.924,0,27.098-11.896,27.771-26.824L187.565,257.479L187.565,257.479z"/>
					</g>
				</g>
			</g>
			<g>
				<g>
					<g>
						
							<path fill="none" stroke="#4E405E" stroke-width="6" stroke-linecap="square" stroke-linejoin="bevel" stroke-miterlimit="10" d="
							M188.335,256.145"/>
					</g>
				</g>
			</g>
			<g>
				<g>
					<g>
						<polygon fill="#F5F5F5" points="131.482,182.189 139.188,182.189 139.188,206.976 131.482,201.581 						"/>
					</g>
				</g>
			</g>
			<g>
				<g>
					<g>
						<polygon fill="#F5F5F5" points="208.067,182.04 200.36,182.04 200.36,206.826 208.067,201.432 						"/>
					</g>
				</g>
			</g>
			<g>
				<path fill="none" d="M150.321,227.596l0.007-2.887c0.032-0.425,0.903-10.437,8.258-10.437h22.353
					c7.355,0,8.227,10.011,8.262,10.437l0.004,0.116v2.771l9.656-5.995V164.44c0-3.234-2.316-5.864-5.17-5.864h-47.855
					c-2.853,0-5.171,2.631-5.171,5.864v57.161L150.321,227.596z"/>
			</g>
			<g>
				<g>
					<g>
						<rect x="163.86" y="225.511" fill="#F5F5F5" width="12.438" height="2.949"/>
					</g>
				</g>
			</g>
			<g>
				<rect x="142.709" y="179.323" fill="#E73D1F" width="17.027" height="5.137"/>
				<rect x="179.517" y="179.323" fill="#E73D1F" width="17.262" height="5.137"/>
				<path fill="#E73D1F" d="M188.267,188.844c-2.322,0-4.209,1.888-4.209,4.208c0,2.321,1.889,4.209,4.209,4.209
					s4.209-1.888,4.209-4.209C192.474,190.732,190.587,188.844,188.267,188.844z M188.267,194.312c-0.695,0-1.262-0.564-1.262-1.261
					c0-0.695,0.561-1.26,1.262-1.26c0.693,0,1.262,0.565,1.262,1.26C189.526,193.748,188.96,194.312,188.267,194.312z"/>
				<path fill="#E73D1F" d="M151.223,188.844c-2.32,0-4.208,1.888-4.208,4.208c0,2.321,1.889,4.209,4.208,4.209
					c2.32,0,4.21-1.888,4.21-4.209C155.433,190.732,153.544,188.844,151.223,188.844z M151.223,194.312
					c-0.695,0-1.26-0.564-1.26-1.261c0-0.695,0.562-1.26,1.26-1.26c0.695,0,1.262,0.565,1.262,1.26
					C152.483,193.748,151.919,194.312,151.223,194.312z"/>
				<path fill="#E73D1F" d="M163.961,185.684v23.799l0.457,1.066c0.294,0.281,2.952,2.741,5.662,2.741
					c2.712,0,5.37-2.46,5.663-2.742l0.457-1.065v-23.799h-2.949v23.129c-0.871,0.706-2.201,1.529-3.168,1.529
					c-0.97,0-2.3-0.823-3.171-1.529v-23.129H163.961L163.961,185.684z"/>
			</g>
			<g>
				<g>
					<g>
						
							<path fill="none" stroke="#4E405E" stroke-width="6" stroke-linecap="square" stroke-linejoin="bevel" stroke-miterlimit="10" d="
							M152.534,256.145"/>
					</g>
				</g>
			</g>
			<g>
				<path fill="none" d="M241.356,293.438l-43.488-35.816h-5.023l-23.654,41.958l-23.848-41.958h-3.047L98.73,293.493l-5.716,4.149
					c-2.08,2.239-3.222,5.148-3.222,8.215v30.451c0,6.666,5.421,12.086,12.084,12.086h136.405c6.664,0,12.084-5.42,12.084-12.086
					v-30.451c0-3.062-1.143-5.974-3.225-8.215L241.356,293.438z"/>
			</g>
			<g>
				<path fill="#E73D1F" d="M249.192,295.52l-0.201-0.184l-5.795-4.202l-43.861-36.129l-0.939-0.338h-9.119v-7.678l5.121-3.023
					c0.975-0.488,7.414-3.902,7.414-8.636v-27.72l7.105-4.973l0.629-1.208v-19.392l-1.477-1.474h-6.258v-11.507
					c5.002-0.333,8.875-1.846,11.531-4.513c3.475-3.481,3.502-7.644,3.5-7.819c0.018-0.206,0.029-0.456,0.029-0.718
					c0-5.407-4.396-9.804-9.805-9.804c-0.256,0-0.512,0.011-0.768,0.03l0.012-3.275c0-7.136-5.771-12.942-12.865-12.942
					c-4.312,0-7.967,2.044-10.154,5.462c-1.902-4.954-6.646-8.327-12.139-8.327c-3.991,0-7.714,2.597-9.975,5.846
					c-1.812-5.801-6.903-9.876-13.059-9.876c-7.593,0-13.771,6.214-13.771,13.853v1.767c-0.174,0.003-0.358,0.004-0.561,0.004
					c-3.627,0-12.633-0.57-17.906-5.843l-2.5,0.822c-0.069,0.465-1.652,11.464,4.461,18.575c2.905,3.378,7.021,5.278,12.252,5.662
					c-0.984,1.841-2.436,4.674-3.757,7.733c-0.477,1.108-0.428,3.762,1.17,6.19c1.396,2.118,4.273,4.568,10.201,5.42v3.26h-6.23
					l-1.475,1.474v19.392l0.628,1.208l7.076,4.954v27.738c0,4.732,6.44,8.146,7.415,8.635l5.927,3.502v7.198h-9.293L140.826,255
					l-43.865,36.128l-5.792,4.207l-0.203,0.181c-2.657,2.808-4.121,6.479-4.121,10.342v30.451c0,8.286,6.744,15.03,15.033,15.03
					h136.406c8.285,0,15.029-6.744,15.029-15.03v-30.453C253.313,301.994,251.851,298.323,249.192,295.52z M201.837,183.514h4.758
					v17.15l-4.758,3.33V183.514z M137.714,203.996l-4.758-3.331v-17.15h4.758V203.996z M150.321,227.596l-9.658-5.994v-14.773
					v-24.787v-4.461c0.553,0.025,1.126,0.039,1.722,0.039c15.556,0,21.718-6.295,23.406-8.514
					c5.956,0.001,28.612,0.021,33.071,0.026v52.471l-9.66,5.995v-2.771l-0.004-0.115c-0.031-0.426-0.904-10.437-8.26-10.437h-22.354
					c-7.354,0-8.225,10.01-8.258,10.437L150.321,227.596z M152.528,257.618l1.477-1.519v-6.895l5.376,3.178l0.75,0.205h19.265
					l0.75-0.205l6.184-3.65v7.41l1.477,1.476h1.65l-20.277,35.973l-20.445-35.973H152.528L152.528,257.618z"/>
				<rect x="162.949" y="268.766" fill="#E73D1F" width="2.946" height="6.688"/>
				<rect x="169.824" y="273.773" fill="#E73D1F" width="2.946" height="6.689"/>
				<rect x="172.278" y="262.581" fill="#E73D1F" width="2.949" height="6.69"/>
			</g>
			<g>
				<g>
					<g>
						<rect x="163.86" y="225.511" fill="#F5F5F5" width="12.438" height="2.949"/>
					</g>
				</g>
			</g>
		</g>
	</g>
</g>
</svg>
