<?xml version="1.0" encoding="utf-8"?>
<!-- Generator: Adobe Illustrator 16.0.0, SVG Export Plug-In . SVG Version: 6.00 Build 0)  -->
<!DOCTYPE svg PUBLIC "-//W3C//DTD SVG 1.1//EN" "http://www.w3.org/Graphics/SVG/1.1/DTD/svg11.dtd">
<svg version="1.1" id="Livello_1" xmlns="http://www.w3.org/2000/svg" xmlns:xlink="http://www.w3.org/1999/xlink" x="0px" y="0px"
	 width="340.158px" height="487.559px" viewBox="-0.694 -0.622 340.158 487.559"
	 enable-background="new -0.694 -0.622 340.158 487.559" xml:space="preserve">
<g>
	<g>
		<g>
			<g>
				<polygon fill="#E73D1F" points="122.899,250.896 118.517,250.896 118.231,250.896 113.851,250.896 100.036,237.331 
					100.036,314.04 118.231,314.04 118.517,314.04 136.714,314.04 136.714,237.331 				"/>
			</g>
			<g>
				<path fill="#E73D1F" d="M136.714,315.671h-36.678l-1.631-1.631v-76.709l2.776-1.166l13.337,13.1h7.713l13.339-13.1l2.777,1.166
					v76.709L136.714,315.671z M101.667,312.408h33.413V241.22l-11.038,10.842l-1.144,0.465h-9.049l-1.145-0.465l-11.039-10.842
					L101.667,312.408L101.667,312.408z"/>
			</g>
			<g>
				<g>
					<path fill="#F5F5F5" d="M113.968,259.911c0,1.758-1.425,3.182-3.183,3.182c-1.756,0-3.182-1.424-3.182-3.182
						c0-1.755,1.426-3.18,3.182-3.18C112.542,256.731,113.968,258.156,113.968,259.911z"/>
				</g>
				<g>
					<circle fill="#F5F5F5" cx="125.964" cy="259.912" r="3.181"/>
				</g>
				<g>
					<path fill="#F5F5F5" d="M119.07,262.476h-0.695h-0.695c-0.628,0-1.136,0.51-1.136,1.137c0,0,1.204,2.144,1.832,2.144
						s1.829-2.144,1.829-2.144C120.204,262.985,119.696,262.476,119.07,262.476z"/>
				</g>
			</g>
			<g>
				<polygon fill="#F5F5F5" points="227.483,263.802 223.636,263.802 223.386,263.802 219.539,263.802 207.407,251.892 
					207.407,300.14 223.386,300.14 223.636,300.14 239.612,300.14 239.612,251.892 				"/>
			</g>
			<g>
				<path fill="#E73D1F" d="M239.612,301.571h-32.205l-1.434-1.434v-48.246l2.438-1.026l11.71,11.499h6.771l11.711-11.499
					l2.438,1.026v48.246L239.612,301.571z M208.841,298.706h29.338V255.31l-9.688,9.517l-1.005,0.409h-7.945l-1.005-0.409
					l-9.688-9.517v43.396H208.841z"/>
			</g>
			<g>
				<g>
					<circle fill="#E73D1F" cx="216.847" cy="270.765" r="2.795"/>
				</g>
				<g>
					<circle fill="#E73D1F" cx="230.175" cy="270.765" r="2.793"/>
				</g>
				<g>
					<path fill="#E73D1F" d="M224.121,273.017h-0.608h-0.611c-0.551,0-0.996,0.445-0.996,0.998c0,0,1.056,1.881,1.605,1.881
						c0.551,0,1.605-1.881,1.605-1.881C225.116,273.462,224.672,273.017,224.121,273.017z"/>
				</g>
			</g>
		</g>
		<path fill="none" stroke="#E73D1F" stroke-width="6" stroke-miterlimit="10" d="M241.897,305.81"/>
		<path fill="none" stroke="#E73D1F" stroke-width="6" stroke-miterlimit="10" d="M99.789,305.81"/>
		<path fill="none" stroke="#E73D1F" stroke-width="6" stroke-miterlimit="10" d="M239.215,342.288"/>
		<path fill="none" stroke="#E73D1F" stroke-width="6" stroke-miterlimit="10" d="M102.471,342.288"/>
	</g>
	<g>
		<g>
			<path fill="#F5F5F5" d="M120.854,189.931c-0.094-0.664-0.188-1.349-0.276-2.049l-3.064,0.183c-0.799,0-1.768,1.363-1.834,2.995
				l2.209,8.486c0.462,1.587,2.622,2.583,4.484,3.128c-0.904-3.948-1.387-7.929-1.39-11.805
				C120.969,190.736,120.911,190.328,120.854,189.931z"/>
		</g>
		<g>
			<g>
				<g>
					<path fill="#E73D1F" d="M167.826,115.037c10.217,0,18.5,4.941,18.5,11.035c0,1.351-0.408,2.644-1.152,3.84
						c3.112,1.347,5.353,2.764,6.347,3.388c23.854,14.971,15.295,59.101,15.295,60.475c0,23.132-17.183,49.391-38.634,49.391
						c-0.012,0,0.386,0,0.373,0c-21.454,0-38.637-26.259-38.637-49.391c0-1.374-8.556-45.504,15.295-60.475
						c0.994-0.624,3.234-2.041,6.346-3.388c-0.745-1.196-1.153-2.488-1.153-3.84c0-6.094,8.282-11.035,18.499-11.035H167.826z"/>
				</g>
			</g>
			<g>
				<g>
					<path fill="#F5F5F5" d="M211.929,189.115c1.844,0,3.348,2.282,3.348,4.687l-2.26,8.688c-1.149,3.96-8.138,4.753-8.138,4.753
						l2.118-18.424L211.929,189.115z"/>
				</g>
			</g>
			<g>
				<g>
					<path fill="#F5F5F5" d="M125.45,189.496c-1.844,0-3.35,2.282-3.35,4.687l2.26,8.689c1.153,3.961,8.139,4.753,8.139,4.753
						l-2.12-18.424L125.45,189.496z"/>
				</g>
			</g>
			<g>
				<g>
					<path fill="#F5F5F5" d="M207.13,170.726c-6.212-13.985-23.138-20.07-38.502-20.158v-0.006c-0.057,0-0.114,0.003-0.171,0.003
						c-0.059,0-0.115-0.003-0.172-0.003v0.006c-15.364,0.088-32.292,6.173-38.501,20.158c0,0,0.719,15.293,0,21.722
						c-0.922,8.242,3.417,22.25,7.735,29.988c4.319,7.738,15.977,20.338,30.938,20.717c14.961,0.377,27.497-10.021,34.263-27.074
						c3.705-9.334,4.41-18.363,4.41-23.631C207.13,185.978,207.13,170.726,207.13,170.726z"/>
				</g>
			</g>
			<g>
				<g>
					<path fill="#E73D1F" d="M205.049,208.746l-0.341-3.004c1.555-0.181,6.148-1.243,6.855-3.674l2.197-8.444
						c-0.066-1.632-1.033-2.995-1.832-2.995l-0.095-0.003l-4.931-0.296l0.183-3.018l4.894,0.293c2.611,0.036,4.812,2.86,4.812,6.197
						v0.193l-2.31,8.876C213.075,207.703,205.865,208.653,205.049,208.746z"/>
				</g>
			</g>
			<g>
				<g>
					<path fill="#E73D1F" d="M150.003,200.314c-2.508,0-4.548-2.041-4.548-4.55c0-2.508,2.041-4.548,4.548-4.548
						c2.509,0,4.55,2.04,4.55,4.548C154.554,198.273,152.513,200.314,150.003,200.314z M150.003,194.241
						c-0.84,0-1.524,0.683-1.524,1.523c0,0.84,0.684,1.525,1.524,1.525c0.842,0,1.525-0.684,1.525-1.525
						C151.53,194.923,150.845,194.241,150.003,194.241z"/>
				</g>
			</g>
			<g>
				<g>
					<path fill="#E73D1F" d="M187.71,200.314c-2.507,0-4.549-2.041-4.549-4.55c0-2.508,2.042-4.548,4.549-4.548
						c2.51,0,4.551,2.04,4.551,4.548C192.261,198.273,190.22,200.314,187.71,200.314z M187.71,194.241
						c-0.841,0-1.523,0.683-1.523,1.523c0,0.84,0.686,1.525,1.523,1.525c0.842,0,1.525-0.684,1.525-1.525
						C189.237,194.923,188.552,194.241,187.71,194.241z"/>
				</g>
			</g>
			<g>
				<polygon fill="#E73D1F" points="174.267,216.497 172.56,199.213 169.549,199.512 171.228,216.497 165.872,216.497 
					167.719,199.525 164.713,199.199 162.501,219.521 171.435,219.521 174.563,219.521 177.826,219.521 177.826,216.497 				"/>
			</g>
			<g>
				<g>
					<rect x="163.976" y="225.455" fill="#E73D1F" width="9.763" height="3.024"/>
				</g>
			</g>
			<g>
				<g>
					<path fill="#E73D1F" d="M132.329,209.125c-0.818-0.093-8.026-1.043-9.42-5.833l-2.321-8.917v-0.193
						c0-3.339,2.198-6.161,4.811-6.198l4.89-0.294l0.182,3.019l-5.021,0.299c-0.799,0-1.768,1.364-1.834,2.996l2.208,8.486
						c0.699,2.403,5.292,3.456,6.845,3.632L132.329,209.125z"/>
				</g>
			</g>
			<g>
				<g>
					<path fill="#E73D1F" d="M179.627,188.032l-1.789-2.438c0.19-0.141,4.734-3.43,9.872-3.43c5.141,0,9.684,3.289,9.874,3.43
						l-1.788,2.438c-0.038-0.026-3.951-2.842-8.086-2.842C183.552,185.189,179.666,188.002,179.627,188.032z"/>
				</g>
			</g>
			<g>
				<g>
					<path fill="#E73D1F" d="M149.855,200.314c-2.509,0-4.549-2.041-4.549-4.55c0-2.508,2.04-4.548,4.549-4.548
						c2.508,0,4.548,2.04,4.548,4.548C154.403,198.273,152.363,200.314,149.855,200.314z M149.855,194.241
						c-0.841,0-1.525,0.683-1.525,1.523c0,0.84,0.684,1.525,1.525,1.525c0.84,0,1.525-0.684,1.525-1.525
						C151.38,194.923,150.695,194.241,149.855,194.241z"/>
				</g>
			</g>
			<g>
				<g>
					<path fill="#E73D1F" d="M141.77,188.032l-1.789-2.438c0.191-0.141,4.733-3.43,9.874-3.43c5.139,0,9.681,3.289,9.872,3.43
						l-1.789,2.438c-0.036-0.026-3.951-2.842-8.083-2.842C145.694,185.189,141.809,188.002,141.77,188.032z"/>
				</g>
			</g>
			<g>
				<g>
					<path fill="#E73D1F" d="M132.5,157.557l65.349-16.968l10.976,32.865c0,0-8.843-1.758-14.65-8.572
						c-4.112-4.826-6.505-15.167-7.448-13.635c-12.687,20.524-57.777,22.822-57.777,22.822L132.5,157.557z"/>
				</g>
			</g>
			<g>
				<g>
					<path fill="#E73D1F" d="M129.045,175.579l-0.206-3.017c4.761-0.326,9.363-0.836,13.674-1.517
						c34.324-5.413,42.792-20.362,42.875-20.513l2.787,0.303c0.051,0.18,5.141,17.511,19.237,20.812l0,0l1.692,0.323l-0.504,2.98
						c-13.562-2.018-20.06-14.676-22.347-20.453c-4.004,4.826-15.547,15.161-43.274,19.535
						C138.585,174.727,133.896,175.247,129.045,175.579z"/>
				</g>
			</g>
			<g>
				<rect x="180.026" y="191.216" fill="#E73D1F" width="15.103" height="3.024"/>
			</g>
			<g>
				<rect x="142.302" y="191.216" fill="#E73D1F" width="15.103" height="3.024"/>
			</g>
			<g>
				<g>
					<polygon fill="#F5F5F5" points="186.052,252.528 186.052,236.853 152.897,236.761 152.897,252.528 					"/>
				</g>
				<g>
					<path fill="#F5F5F5" d="M241.651,308.738H97.12v27.446c0,6.717,5.56,12.184,12.394,12.184h119.743
						c6.835,0,12.395-5.467,12.395-12.184V308.738L241.651,308.738z"/>
				</g>
				<g>
					<path fill="#F5F5F5" d="M239.976,299.384H98.795c-1.085,1.84-1.676,3.93-1.676,6.1v0.334h144.532v-0.334
						C241.651,303.312,241.062,301.224,239.976,299.384z"/>
				</g>
				<g>
					<path fill="#F5F5F5" d="M114.069,287.103h110.632l-11.749-8.925c-0.079,0.005-0.159-0.024-0.217-0.104
						c-0.034-0.052-0.072-0.095-0.109-0.144l-14.986-11.385l-10.713-4.883l-0.878-1.35v-10.767h-33.153v10.767l-0.884,1.354
						l-10.884,4.883L114.069,287.103z"/>
				</g>
				<g>
					<polygon fill="#F5F5F5" points="106.322,292.988 101.461,296.46 237.31,296.46 232.483,293.017 228.554,290.026 
						110.22,290.026 					"/>
				</g>
				<g>
					<path fill="#E73D1F" d="M240.447,295.058l-0.208-0.182l-5.94-4.242l-34.944-26.543l-0.291-0.172l-9.988-4.557v-23.229h-3.023
						v24.181l0.875,1.348l10.715,4.885l14.983,11.387c0.038,0.047,0.078,0.092,0.108,0.142c0.06,0.079,0.142,0.108,0.22,0.105
						l11.749,8.925H114.07l27.059-20.557l10.885-4.881l0.884-1.354v-23.562h-3.024v22.604l-10.159,4.559l-0.297,0.176
						l-34.909,26.518l-5.977,4.269l-0.21,0.183c-2.726,2.825-4.227,6.528-4.227,10.426v30.701c0,8.354,6.916,15.153,15.418,15.153
						h119.743c8.503,0,15.419-6.799,15.419-15.153v-30.701C244.676,301.589,243.175,297.886,240.447,295.058z M106.322,292.988
						l3.898-2.962h118.333l3.932,2.988l4.824,3.444H101.461L106.322,292.988z M241.651,336.185c0,6.717-5.562,12.185-12.396,12.185
						H109.514c-6.834,0-12.394-5.468-12.394-12.185v-27.445h144.531V336.185L241.651,336.185z M241.651,305.813H97.12v-0.332
						c0-2.17,0.59-4.26,1.676-6.101h141.18c1.086,1.838,1.676,3.931,1.676,6.101V305.813L241.651,305.813z"/>
				</g>
			</g>
			<g>
				<g>
					<path fill="#E73D1F" d="M169.067,244.673l-0.373-0.002c-22.401-0.299-39.756-27.521-39.776-50.857
						c-0.013-0.133-0.07-0.542-0.127-0.938c-2.481-17.39-3.686-48.418,16.132-60.856l0.054-0.036
						c0.907-0.569,2.636-1.655,5.036-2.798c-0.402-1.009-0.606-2.052-0.606-3.113c0-6.74,8.276-12.185,18.935-12.53v-0.019
						l1.076,0.019c10.66,0.346,18.935,5.79,18.935,12.53c0,1.062-0.203,2.104-0.604,3.113c2.396,1.142,4.129,2.229,5.035,2.798
						l0.055,0.035c19.817,12.439,18.612,43.468,16.135,60.855c-0.06,0.397-0.117,0.808-0.129,0.939
						c-0.021,23.339-17.377,50.56-39.778,50.858V244.673L169.067,244.673z M168.881,116.551c-9.072,0.163-16.449,4.43-16.449,9.52
						c0,1.032,0.311,2.055,0.924,3.04l-0.684,2.188c-2.949,1.274-5.068,2.605-6.085,3.244l-0.056,0.036
						c-18.371,11.53-17.124,41.205-14.747,57.868c0.126,0.878,0.158,1.117,0.158,1.325c0,10.98,4.082,23.09,10.919,32.393
						c7.287,9.914,16.527,15.414,26.019,15.484c9.493-0.07,18.732-5.57,26.02-15.484c6.84-9.304,10.918-21.413,10.918-32.393
						c0-0.208,0.033-0.447,0.16-1.325c2.379-16.663,3.623-46.338-14.746-57.868l-0.057-0.036c-1.018-0.639-3.135-1.97-6.085-3.244
						l-0.684-2.188c0.612-0.985,0.926-2.009,0.926-3.04C185.331,120.981,177.954,116.714,168.881,116.551z"/>
				</g>
			</g>
		</g>
		<g>
			<path fill="#E73D1F" d="M169.093,278.731c-12.377,0-23.167-6.422-26.24-15.619l2.869-0.959
				c2.666,7.979,12.277,13.555,23.372,13.555c10.775,0,20.316-5.375,23.202-13.068l2.83,1.061
				C191.808,272.55,181.103,278.731,169.093,278.731z"/>
		</g>
	</g>
</g>
</svg>
