<?xml version="1.0" encoding="utf-8"?>
<!-- Generator: Adobe Illustrator 16.0.0, SVG Export Plug-In . SVG Version: 6.00 Build 0)  -->
<!DOCTYPE svg PUBLIC "-//W3C//DTD SVG 1.1//EN" "http://www.w3.org/Graphics/SVG/1.1/DTD/svg11.dtd">
<svg version="1.1" id="FF_cover" xmlns="http://www.w3.org/2000/svg" xmlns:xlink="http://www.w3.org/1999/xlink" x="0px" y="0px"
	 width="790.004px" height="542.613px" viewBox="0 0 790.004 542.613" enable-background="new 0 0 790.004 542.613"
	 xml:space="preserve">
<g class="sopra">
	<path fill="#FFFFFF" d="M219.297,535.583h179.663v111.912H219.297v143.32h-128.6V288.205h342.608v116.82H219.292L219.297,535.583
		L219.297,535.583z"/>
	<path fill="#FFFFFF" d="M626.686,535.583h179.658v111.912H626.676v143.32H498.09V288.205h342.611v116.82H626.676v130.562
		L626.686,535.583L626.686,535.583z"/>
</g>
<g class="sotto">
	<g>
		<polygon fill="#FFFFFF" points="463.305,348.205 463.305,435.025 249.292,435.025 249.297,565.583 279.296,565.583 279.292,465.025 
			493.305,465.025 493.305,348.205 		"/>
		<polygon fill="#FFFFFF" points="428.959,677.496 249.297,677.496 249.297,820.816 150.697,820.816 150.697,850.816 279.297,850.816 
			279.297,707.496 458.959,707.496 458.959,595.583 428.959,595.583 		"/>
	</g>
	<g>
		<polygon fill="#FFFFFF" points="836.344,677.496 656.676,677.496 656.676,820.816 558.09,820.816 558.09,850.816 686.676,850.816 
			686.676,707.496 866.344,707.496 866.344,595.583 836.344,595.583 		"/>
		<polygon fill="#FFFFFF" points="870.702,348.205 870.702,435.025 656.676,435.025 656.676,565.587 656.686,565.583 686.676,565.583 
			686.676,465.025 900.702,465.025 900.702,348.205 		"/>
	</g>
</g>
</svg>
