<?xml version="1.0" encoding="utf-8"?>
<!-- Generator: Adobe Illustrator 21.0.0, SVG Export Plug-In . SVG Version: 6.00 Build 0)  -->
<svg version="1.1" id="Livello_1" xmlns="http://www.w3.org/2000/svg" xmlns:xlink="http://www.w3.org/1999/xlink" x="0px" y="0px"
	 viewBox="0 0 338 184" style="enable-background:new 0 0 338 184;" xml:space="preserve">
<style type="text/css">
	.st0{clip-path:url(#SVGID_2_);}
	.st1{clip-path:url(#SVGID_2_);fill:#1D1D1B;}
</style>
<g>
	<defs>
		<rect id="SVGID_1_" x="-1" y="-0.1" width="339" height="183.1"/>
	</defs>
	<clipPath id="SVGID_2_">
		<use xlink:href="#SVGID_1_"  style="overflow:visible;"/>
	</clipPath>
	<path class="st0" d="M87.5,152.5h-6.1c0-6.7,5.5-12.2,12.2-12.2h33.6c3.4,0,6.1-2.7,6.1-6.1c0-3.4-2.7-6.1-6.1-6.1h-28l-33.6-12.2
		H38.7v-6.1h28l33.6,12.2h26.9c6.7,0,12.2,5.5,12.2,12.2c0,6.7-5.5,12.2-12.2,12.2H93.6C90.2,146.4,87.5,149.1,87.5,152.5"/>
	<path class="st0" d="M112.7,183h-7.4l-51.9-18.3H38.7v-6.1h15.8l51.9,18.3h4.8l75.2-39.1c0.8-1,1.9-2.6,1.9-3.6
		c0-3.2-2.5-5.9-5.7-6.1l-48.3,15.1l-1.8-5.8l49.7-15.4c6.7,0,12.2,5.5,12.2,12.2c0,4.2-3.5,7.9-3.9,8.3l-0.8,0.6L112.7,183z"/>
	<path class="st0" d="M35.6,170.8H-1v-6.1h36.6v-54.9H-1v-6.1h36.6c3.4,0,6.1,2.7,6.1,6.1v54.9C41.7,168.1,39,170.8,35.6,170.8"/>
	<path class="st0" d="M81.4,6C67.9,6,57,16.9,57,30.4c0,28.3,42.8,60,51.9,66.5c9.1-6.4,51.9-38.2,51.9-66.5
		c0-13.5-11-24.4-24.4-24.4c-13.9,0-24.4,12.2-24.4,18.3h-6.1C105.8,18.2,95.3,6,81.4,6 M108.9,104.3l-1.7-1.1
		c-2.3-1.5-56.3-37.9-56.3-72.7c0-16.8,13.7-30.5,30.5-30.5c12.1,0,22.5,6.9,27.5,14.8c4.9-8,15.4-14.8,27.5-14.8
		c16.8,0,30.5,13.7,30.5,30.5c0,34.8-54,71.2-56.3,72.7L108.9,104.3z"/>
	<path class="st1" d="M315.1,78.7h16.1v14.2h-16.1V78.7z M308.3,110.3h6.8V98.8h16.1v11.5h6.8V72.4h-29.7V110.3z M294.7,101.8
		l-16.2-14.4V81l16.2,14.4V101.8z M294.7,110.3h6.5V72.4h-6.5v14.4l-16.2-14.4H272v37.9h6.5V96L294.7,110.3L294.7,110.3z
		 M237.1,91.4V78.3h10.8c7.9,0,10.8,6.2,10.8,13.1v13.1h-10.8C240,104.5,237.1,98.4,237.1,91.4 M247.9,72.4h-17.8v19
		c0,10.1,5.6,19,17.8,19h17.8v-19C265.7,81.4,260.1,72.4,247.9,72.4 M200.7,104.1V78.7h4.1c9.3,0,13,3.7,13,12.7
		c0,9.5-5.3,12.7-13.6,12.7H200.7z M193.9,110.3h10.9c12.8,0,19.8-6.9,19.8-18.7c0-12.3-6.8-19.2-19.7-19.2h-11V110.3z"/>
</g>
</svg>
