<?xml version="1.0" encoding="utf-8"?>
<!-- Generator: Adobe Illustrator 21.0.0, SVG Export Plug-In . SVG Version: 6.00 Build 0)  -->
<svg version="1.1" id="Livello_1" xmlns="http://www.w3.org/2000/svg" xmlns:xlink="http://www.w3.org/1999/xlink" x="0px" y="0px"
	 viewBox="0 0 45.8 45.8" style="enable-background:new 0 0 45.8 45.8;" xml:space="preserve">
<style type="text/css">
	.st0{fill:#FFFFFF;}
</style>
<g>
	<g>
		<path d="M38.2,0H7.6C3.4,0,0,3.4,0,7.6v30.5c0,4.2,3.4,7.6,7.6,7.6h30.5c4.2,0,7.6-3.4,7.6-7.6V7.6C45.8,3.4,42.4,0,38.2,0"/>
		<path class="st0" d="M22.5,25.3h-6.3v-4.8c0.2,0,0.3,0,0.5,0c3.4,0,7.3,0,10.7,0h0c1.1,6-3,12.4-9,13.5c-6,1.1-11.7-2.5-13.1-8.5
			C3.9,19.4,8,12.9,14.2,11.8c3.5-0.6,6.6,0.2,9.4,2.4l-3.3,3.4c-3.7-2.7-8.9-0.9-10.2,3.4c-1.2,3.9,1.4,7.8,5.4,8.4
			c2.8,0.4,5.5-1,6.8-3.5C22.4,25.7,22.4,25.5,22.5,25.3"/>
	</g>
	<polygon class="st0" points="40.7,20.9 36.9,20.9 36.9,17 33.9,17 33.9,20.9 30,20.9 30,23.9 33.9,23.9 33.9,27.7 36.9,27.7 
		36.9,23.9 40.7,23.9 	"/>
</g>
</svg>
