<svg version="1.1" id="logo_headline" xmlns="http://www.w3.org/2000/svg" xmlns:xlink="http://www.w3.org/1999/xlink" x="0px" y="0px"
	 width="183.748px" height="76.037px" viewBox="0 0 183.748 76.037" enable-background="new 0 0 183.748 76.037"
	 xml:space="preserve">


<style type="text/css">
<![CDATA[


  g:hover { 
    fill: #ff3300!important;    
    pointer-events: all; 
    transition: fill .3s    }
  

  g { 
   fill: black!important;
    pointer-events: all;  
    transition: fill .3s    }
  
  ]]>

</style>
<g>

	<path d="M1.112,41.038V0h25.559v8.64H11.372v9.06h12.54v8.16h-12.54v15.179H1.112z"/>
	<path d="M31.052,41.038V0H56.61v8.64H41.311v9.06h12.54v8.16h-12.54v15.179H31.052z"/>
	<path d="M62.791,24.119h8.879c2.52-0.24,4.5-1.68,4.5-3.66c0-3.06-1.44-3.66-5.22-3.66c-2.34,0-8.34,0.54-10.919,1.14l-0.9-7.74
		c3.72-0.84,9.3-1.62,12.84-1.62c9.54,0,13.919,2.04,13.919,10.439c0,4.44-2.16,6-4.74,7.8c3.899,1.44,5.76,3.419,5.76,8.879
		c0,9.42-4.92,12.419-26.639,13.62l-0.48-8.04c14.939-1.08,17.339-2.46,17.339-5.88c0-2.88-1.92-3.18-5.28-3.42h-9.06V24.119z"/>
	<path d="M92.97,24.119h8.879c2.52-0.24,4.5-1.68,4.5-3.66c0-3.06-1.44-3.66-5.22-3.66c-2.34,0-8.34,0.54-10.92,1.14l-0.9-7.74
		c3.72-0.84,9.3-1.62,12.84-1.62c9.54,0,13.919,2.04,13.919,10.439c0,4.44-2.16,6-4.74,7.8c3.9,1.44,5.76,3.419,5.76,8.879
		c0,9.42-4.919,12.419-26.639,13.62l-0.48-8.04c14.939-1.08,17.339-2.46,17.339-5.88c0-2.88-1.92-3.18-5.28-3.42h-9.06V24.119z"/>
	<path d="M150.329,25.019c0,11.1-4.68,16.68-14.939,16.68c-10.2,0-14.879-5.58-14.879-16.68c0-10.679,4.74-16.559,14.879-16.559
		C145.589,8.459,150.329,14.339,150.329,25.019z M135.389,33.838c3.96,0,5.28-3,5.28-8.82c0-5.819-1.32-8.699-5.28-8.699
		c-3.84,0-5.16,2.88-5.16,8.699C130.229,30.838,131.549,33.838,135.389,33.838z"/>
	<path d="M183.748,25.019c0,11.1-4.68,16.68-14.939,16.68c-10.199,0-14.879-5.58-14.879-16.68c0-10.679,4.74-16.559,14.879-16.559
		C179.008,8.459,183.748,14.339,183.748,25.019z M168.809,33.838c3.96,0,5.28-3,5.28-8.82c0-5.819-1.32-8.699-5.28-8.699
		c-3.84,0-5.16,2.88-5.16,8.699C163.649,30.838,164.969,33.838,168.809,33.838z"/>
	<path d="M9.043,56.388h2.267c-0.902,4.247-2.508,10.034-4.159,15.05H4.159C2.487,66.421,0.924,60.678,0,56.388h2.442
		c0.858,4.312,2.046,8.801,3.257,13.158h0.066C6.953,65.211,8.164,60.634,9.043,56.388z"/>
	<path d="M14.41,56.344c0.858,0,1.166,0.352,1.166,1.056s-0.308,1.034-1.166,1.034c-0.88,0-1.188-0.33-1.188-1.034
		S13.53,56.344,14.41,56.344z M15.422,71.438h-2.024V60.282h2.024V71.438z"/>
	<path d="M18.128,69.392c1.012,0.286,2.552,0.572,3.564,0.572c1.562,0,2.178-0.352,2.178-1.65c0-1.056-0.374-1.254-2.134-1.606
		c-2.971-0.55-3.785-1.188-3.785-3.279c0-2.486,1.408-3.322,4.071-3.322c1.078,0,2.618,0.198,3.718,0.418l-0.176,1.672
		c-1.034-0.22-2.464-0.44-3.389-0.44c-1.452,0-2.178,0.308-2.178,1.54c0,1.012,0.44,1.21,2.464,1.606
		c2.772,0.528,3.455,1.079,3.455,3.279c0,2.552-1.1,3.455-4.027,3.455c-1.254,0-2.772-0.264-4.026-0.55L18.128,69.392z"/>
	<path d="M34.893,60.282h2.046v11.156h-1.87l-0.066-0.88c-1.078,0.749-2.046,1.101-3.037,1.101c-2.684,0-3.718-1.188-3.718-4.291
		v-7.085h2.024v6.799c0,2.068,0.484,2.75,2.398,2.75c0.726,0,1.519-0.33,2.223-0.902V60.282z"/>
	<path d="M39.313,67.235c0-1.1,0.638-1.628,1.804-1.76l4.863-0.616c0-2.398-0.22-3.036-2.442-3.036
		c-0.968,0-2.508,0.198-3.675,0.484l-0.242-1.65c1.298-0.308,2.948-0.55,4.203-0.55c3.718,0,4.158,1.232,4.158,5.545v5.787h-1.804
		l-0.044-1.65c-0.484,1.364-1.408,1.871-3.125,1.871C40.414,71.658,39.313,70.404,39.313,67.235z M41.822,66.883
		c-0.308,0.044-0.484,0.264-0.484,0.572c0,1.87,0.528,2.574,2.134,2.574c1.892,0,2.508-1.012,2.508-3.586v-0.176L41.822,66.883z"/>
	<path d="M50.753,71.438V56.036l2.024-0.11v15.512H50.753z"/>
	<path d="M68.178,71.438c-0.198-0.814-0.55-2.289-0.792-3.081h-5.435c-0.264,0.902-0.572,2.178-0.77,3.081h-2.245
		c0.924-4.533,2.575-10.385,4.269-15.05h2.97c1.672,4.511,3.389,10.408,4.312,15.05H68.178z M67.122,66.553
		c-0.55-2.2-1.738-6.315-2.376-8.295h-0.11c-0.638,2.002-1.805,6.051-2.398,8.295H67.122z"/>
	<path d="M78.298,62.219c-1.1,0.176-3.059,0.858-3.917,1.342v7.877h-2.024V60.282h1.914l0.088,1.584
		c0.858-0.616,2.75-1.541,3.938-1.76V62.219z"/>
	<path d="M80.343,66.267v-4.269h-1.43v-1.694h1.43v-2.112l2.002-0.396v2.486h3.058v1.716h-3.058v4.181
		c0,3.146,0.242,3.697,1.474,3.697c0.462,0,1.21-0.088,1.54-0.154l0.154,1.672c-0.44,0.088-1.541,0.22-2.156,0.22
		C80.915,71.614,80.343,70.58,80.343,66.267z"/>
	<path d="M87.471,69.392c1.012,0.286,2.552,0.572,3.564,0.572c1.562,0,2.178-0.352,2.178-1.65c0-1.056-0.374-1.254-2.134-1.606
		c-2.971-0.55-3.785-1.188-3.785-3.279c0-2.486,1.408-3.322,4.071-3.322c1.078,0,2.618,0.198,3.718,0.418l-0.176,1.672
		c-1.034-0.22-2.464-0.44-3.389-0.44c-1.452,0-2.178,0.308-2.178,1.54c0,1.012,0.44,1.21,2.464,1.606
		c2.772,0.528,3.455,1.079,3.455,3.279c0,2.552-1.1,3.455-4.027,3.455c-1.254,0-2.772-0.264-4.026-0.55L87.471,69.392z"/>
	<path d="M113.036,69.479c0.506,0.506,0.968,0.66,1.804,0.946l-0.242,1.562c-1.584-0.308-2.156-0.528-2.904-1.276l-0.814-0.858
		c-1.497,1.497-2.201,1.783-4.885,1.783c-2.993,0-4.533-1.519-4.533-4.643c0-2.046,0.66-3.19,3.278-4.51
		c-1.012-1.364-1.21-1.805-1.21-3.103c0-2.398,1.694-3.411,4.114-3.411c2.531,0,4.005,1.034,4.005,3.411
		c0,1.826-0.33,2.464-3.345,4.489l2.794,3.542c0.88-1.21,1.386-2.134,1.893-4.951l1.452,0.264c-0.528,3.433-1.012,4.335-2.201,5.919
		L113.036,69.479z M105.796,63.671c-2.09,1.1-2.376,2.002-2.376,3.344c0,1.915,0.771,2.993,2.707,2.993
		c1.98,0,2.42-0.176,3.697-1.408L105.796,63.671z M107.645,57.598c-1.276,0-2.112,0.55-2.112,1.914c0,0.946,0.176,1.43,1.76,3.278
		c2.157-1.518,2.42-1.892,2.42-3.278C109.713,58.17,108.921,57.598,107.645,57.598z"/>
	<path d="M120.91,56.3c1.012-0.066,2.684-0.132,4.026-0.132c4.335,0,6.579,1.562,6.579,7.437c0,6.029-2.134,8.075-6.579,8.075
		c-1.232,0-2.838-0.088-4.026-0.176V56.3z M123.088,58.104v11.618c0.396,0.022,1.386,0.066,1.892,0.066
		c2.707,0,4.269-1.408,4.269-6.139c0-4.555-1.475-5.611-4.269-5.611C124.43,58.038,123.462,58.06,123.088,58.104z"/>
	<path d="M142.295,64.529c0,1.188-0.484,1.628-1.716,1.738l-5.126,0.462c0.11,2.552,0.638,3.19,2.794,3.19
		c0.99,0,2.464-0.198,3.543-0.418l0.22,1.672c-1.144,0.242-2.729,0.462-3.938,0.462c-3.411,0-4.665-1.276-4.665-5.765
		c0-4.07,1.386-5.809,4.577-5.809C141.019,60.062,142.295,61.272,142.295,64.529z M135.452,65.277l4.378-0.484
		c0.286-0.022,0.462-0.22,0.462-0.462c0-1.98-0.572-2.641-2.332-2.641C136.112,61.69,135.474,62.681,135.452,65.277z"/>
	<path d="M144.516,69.392c1.012,0.286,2.552,0.572,3.564,0.572c1.562,0,2.178-0.352,2.178-1.65c0-1.056-0.374-1.254-2.134-1.606
		c-2.971-0.55-3.785-1.188-3.785-3.279c0-2.486,1.408-3.322,4.071-3.322c1.078,0,2.618,0.198,3.718,0.418l-0.176,1.672
		c-1.034-0.22-2.464-0.44-3.389-0.44c-1.452,0-2.178,0.308-2.178,1.54c0,1.012,0.44,1.21,2.464,1.606
		c2.772,0.528,3.455,1.079,3.455,3.279c0,2.552-1.1,3.455-4.027,3.455c-1.254,0-2.772-0.264-4.026-0.55L144.516,69.392z"/>
	<path d="M155.735,56.344c0.858,0,1.166,0.352,1.166,1.056s-0.308,1.034-1.166,1.034c-0.88,0-1.188-0.33-1.188-1.034
		S154.855,56.344,155.735,56.344z M156.748,71.438h-2.024V60.282h2.024V71.438z"/>
	<path d="M158.815,72.692c0-1.342,0.704-1.98,2.002-2.75c-0.375-0.22-0.55-0.682-0.55-1.21c0-0.374,0.638-1.386,0.968-1.694
		c-1.408-0.594-2.112-1.518-2.112-3.168c0-2.619,1.584-3.807,4.312-3.807c1.144,0,1.936,0.242,2.552,0.594l2.904-0.814l0.286,1.65
		l-2.068,0.352c0.44,0.506,0.704,1.078,0.704,2.046c0,2.464-1.496,3.499-4.247,3.499c-0.154,0-0.682-0.044-0.88-0.088
		c-0.242,0.198-0.55,0.924-0.55,1.122c0,0.396,0.176,0.484,2.927,0.792c2.684,0.308,3.873,0.946,3.873,3.278
		c0,2.266-1.475,3.542-5.017,3.542C160.355,76.037,158.815,75.002,158.815,72.692z M162.203,70.602
		c-0.968,0.594-1.43,1.166-1.43,1.98c0,1.364,0.792,1.958,3.19,1.958c2.134,0,2.927-0.66,2.927-1.893c0-1.254-0.704-1.54-2.75-1.782
		C163.436,70.778,162.775,70.712,162.203,70.602z M165.768,63.869c0-1.475-0.704-2.179-2.333-2.179
		c-1.562,0-2.289,0.771-2.289,2.179c0,1.386,0.792,2.002,2.289,2.002C164.998,65.871,165.768,65.277,165.768,63.869z"/>
	<path d="M173.093,71.438h-2.024V60.282h1.87l0.088,0.836c1.012-0.682,2.002-1.056,3.08-1.056c2.729,0,3.653,1.364,3.653,4.4v6.975
		h-2.024v-6.777c0-2.068-0.528-2.772-2.354-2.772c-0.748,0-1.562,0.352-2.288,0.902V71.438z"/>
</g>
</svg>
