<?xml version="1.0" encoding="utf-8"?>
<!-- Generator: Adobe Illustrator 16.0.0, SVG Export Plug-In . SVG Version: 6.00 Build 0)  -->
<!DOCTYPE svg PUBLIC "-//W3C//DTD SVG 1.1//EN" "http://www.w3.org/Graphics/SVG/1.1/DTD/svg11.dtd">
<svg version="1.1" id="Livello_1" xmlns="http://www.w3.org/2000/svg" xmlns:xlink="http://www.w3.org/1999/xlink" x="0px" y="0px"
	 width="340.158px" height="487.559px" viewBox="0 0 340.158 487.559" enable-background="new 0 0 340.158 487.559"
	 xml:space="preserve">
<g>
	<g>
		<g>
			<path fill="#F5F5F5" d="M246.55,217.037v16.922c0,2.538-2.062,4.594-4.594,4.594c0,0-3.13-0.541-3.13,1.323l-0.026,14.586
				l-0.002,0.822c0,2.044-1.649,3.698-3.688,3.698c-2.035,0-3.685-1.655-3.685-3.698l-0.032-15.407c0-1.865-3.125-1.324-3.125-1.324
				c-2.537,0-4.597-2.056-4.597-4.594v-16.921L246.55,217.037L246.55,217.037z"/>
		</g>
		<g>
			<path fill="#E73D1F" d="M235.113,260.457c-2.844,0-5.155-2.322-5.155-5.173l-0.031-15.253c-0.129-0.036-0.354-0.077-0.696-0.077
				c-0.392,0-0.705,0.052-0.707,0.052l-0.248,0.021c-3.345,0-6.065-2.72-6.065-6.067v-18.396h25.817v18.396
				c0,3.346-2.724,6.069-6.065,6.069l-0.25-0.022l0,0c0,0-0.313-0.052-0.705-0.052c-0.34,0-0.567,0.041-0.696,0.077l-0.031,15.256
				C240.273,258.135,237.96,260.457,235.113,260.457z M229.227,237.005c2.688,0,3.646,1.483,3.646,2.871l0.031,15.406
				c0,1.229,0.99,2.228,2.207,2.228s2.211-0.999,2.211-2.226l0.031-15.41c0-1.386,0.959-2.869,3.646-2.869
				c0.459,0,0.85,0.045,1.055,0.072c1.674-0.051,3.02-1.43,3.02-3.118v-15.447h-19.922v15.446c0,1.688,1.348,3.065,3.021,3.117
				C228.382,237.049,228.77,237.005,229.227,237.005z"/>
		</g>
		<g>
			<path fill="#E73D1F" d="M248.025,233.561h-25.822v-7.564h25.82v7.564H248.025z M225.152,230.612h19.922v-1.667h-19.922V230.612z"
				/>
		</g>
		<g>
			<g>
				<rect x="240.02" y="220.985" fill="#E73D1F" width="2.948" height="5.869"/>
			</g>
			<g>
				<rect x="235.766" y="220.985" fill="#E73D1F" width="2.948" height="5.869"/>
			</g>
			<g>
				<rect x="231.513" y="220.985" fill="#E73D1F" width="2.949" height="5.869"/>
			</g>
			<g>
				<rect x="227.259" y="220.985" fill="#E73D1F" width="2.951" height="5.869"/>
			</g>
		</g>
		<polyline fill="#F5F5F5" points="251.835,313.241 251.835,250.223 212.421,250.223 212.421,267.295 		"/>
		<polygon fill="#E73D1F" points="253.306,313.241 250.357,313.241 250.357,251.693 213.893,251.693 213.893,267.295 
			210.943,267.295 210.943,250.223 212.421,248.746 251.835,248.746 253.306,250.223 		"/>
		<path fill="#E73D1F" d="M233.951,254.303c1.871,0,3.392,1.521,3.392,3.393v18.886c0,0.345,0.279,0.624,0.625,0.624
			c0.347,0,0.627-0.279,0.627-0.624v-9.12c0-1.736,1.414-3.157,3.158-3.157c1.737,0,3.155,1.417,3.155,3.198
			c0,0.219,0.179,0.396,0.396,0.396c0.201,0,0.381-0.205,0.381-0.437v-14.636c0-2.082,1.689-3.776,3.773-3.776
			c2.055,0,3.729,1.694,3.729,3.776h-2.767c0-0.578-0.414-1.014-0.963-1.014c-0.56,0-1.015,0.453-1.015,1.014v14.636
			c0,1.763-1.406,3.199-3.142,3.199c-1.741,0-3.157-1.417-3.157-3.199c0-0.217-0.179-0.396-0.396-0.396
			c-0.219,0-0.396,0.177-0.396,0.396v9.12c0,1.869-1.521,3.393-3.391,3.393s-3.391-1.521-3.391-3.393v-18.887
			c0-0.346-0.277-0.625-0.625-0.625c-0.346,0-0.623,0.279-0.623,0.625v11.58c0,0.766-0.617,1.384-1.383,1.384
			c-0.764,0-1.383-0.619-1.383-1.384v-11.58C230.564,255.823,232.085,254.303,233.951,254.303z"/>
	</g>
	<g>
		<path fill="#F5F5F5" d="M209.944,264.566l-10.611-9.562l-0.127,0.062h-11.6V240.66c3.535-2.674,6.799-6.187,9.671-10.475
			c4.209-6.279,7.276-13.789,9.076-21.974h1.231c2.739,0,4.979-2.205,5.037-4.938l2.272-18.076l0.013-0.186
			c0-2.883-2.961-5.037-5.605-5.037h-1.467c-0.566-7.865-1.793-14.601-3.694-20.305c-0.601-2.027-1.052-3.258-1.084-3.347
			c-0.089-0.233-0.229-0.433-0.405-0.589c-0.609-1.424-1.264-2.781-1.975-4.058c-6.172-11.079-16.401-16.697-30.405-16.697
			c-8.47,0-15.558,2.061-21.205,6.139c-1.591-0.071-3.179-0.117-4.748-0.117c-10.554,0-16.992,1.549-17.263,1.615l-1.804,0.442
			l0.841,1.657c0.266,0.523,3.853,7.423,10.767,13.643c-2.164,5.976-3.539,13.141-4.152,21.616h-1.166
			c-2.648,0-5.609,2.154-5.609,5.038l2.29,18.261c0.054,2.731,2.292,4.937,5.035,4.937h0.941
			c3.077,13.867,9.74,25.362,18.369,32.098v14.689h-11.765v0.028l-43.84,36.104l-5.792,4.206l-0.204,0.183
			c-2.659,2.807-4.122,6.478-4.122,10.336v30.455c0,8.287,6.745,15.029,15.033,15.029h136.404c8.287,0,15.032-6.742,15.032-15.029
			v-30.455c0-0.086-4.233-8.263-4.235-8.352L209.944,264.566z"/>
		<path fill="none" d="M205.003,182.022c-0.006-0.008-0.015-0.013-0.02-0.021l-8.01-11.799c-0.244-0.358-0.316-0.805-0.202-1.223
			l2.813-10.146c-3.537,1.047-7.252,1.586-11.02,1.748c-3.588,3.745-11.127,7.823-26.963,7.823c-7.747,0-14.222-2.532-19.433-5.942
			l1.812,6.576c0.114,0.419,0.04,0.864-0.203,1.222l-8.036,11.816c-0.069,0.103-0.15,0.192-0.239,0.272
			c-0.052,0.917-0.097,1.847-0.13,2.793l0.035-0.011l9.793,32.294l8.296,11.676v-6.06l0.57-1.164l7.992-6.2l0.903-0.309h14.936
			l0.901,0.309l7.992,6.2l0.569,1.164v6.06l8.296-11.676l9.457-31.063l0.072,0.022C205.155,184.891,205.085,183.444,205.003,182.022
			z"/>
		<path fill="#E73D1F" d="M204.134,159.666c-0.603-2.027-1.047-3.257-1.082-3.347c-0.088-0.233-0.229-0.433-0.404-0.589
			c-0.609-1.424-1.264-2.781-1.975-4.058c-6.174-11.079-16.404-16.698-30.41-16.698c-8.47,0-15.559,2.061-21.205,6.139
			c-1.592-0.071-3.179-0.117-4.749-0.117c-10.554,0-16.993,1.549-17.262,1.615l-1.806,0.442l0.842,1.658
			c0.266,0.523,3.853,7.423,10.768,13.643c-3.037,8.386-4.53,19.105-4.53,32.522c0,30.822,17.021,55.897,37.939,55.897
			c10.249,0,19.84-5.896,27.008-16.6c7.049-10.52,10.931-24.478,10.931-39.304C208.206,178.151,206.864,167.851,204.134,159.666z
			 M195.665,217.426l-8.296,11.676v-6.06l-0.569-1.164l-7.988-6.2l-0.903-0.31h-14.937l-0.904,0.31l-7.991,6.2l-0.57,1.164v6.06
			l-8.295-11.676l-9.793-32.294l-0.036,0.011c0.035-0.947,0.078-1.875,0.129-2.793c0.089-0.08,0.172-0.171,0.241-0.273l8.035-11.816
			c0.244-0.354,0.317-0.803,0.203-1.22l-1.812-6.577c5.212,3.408,11.687,5.941,19.433,5.941c15.835,0,23.375-4.077,26.963-7.823
			c3.768-0.161,7.479-0.701,11.02-1.748l-2.812,10.146c-0.115,0.417-0.043,0.864,0.201,1.222l8.01,11.799
			c0.008,0.009,0.016,0.014,0.02,0.021c0.084,1.423,0.152,2.868,0.192,4.363l-0.069-0.023L195.665,217.426z"/>
		<path fill="#FFFFFF" d="M150.017,147.686c0.006,0,0.012-0.014,0.016-0.037C150.016,147.672,150.008,147.686,150.017,147.686z"/>
		<rect x="145.285" y="179.111" fill="#E73D1F" width="17.292" height="4.121"/>
		<rect x="177.646" y="179.111" fill="#E73D1F" width="17.294" height="4.121"/>
		<polygon fill="#E73D1F" points="174.208,218.316 166.325,218.316 164.852,216.842 164.852,189.402 167.799,189.402 
			167.799,215.368 172.733,215.368 172.733,189.402 175.681,189.402 175.681,216.842 		"/>
		<circle fill="#E73D1F" cx="180.72" cy="201.891" r="1.226"/>
		<path fill="#E73D1F" d="M134.729,208.206h-1.474c-2.743,0-4.981-2.205-5.035-4.938l-2.29-18.261c0-2.883,2.96-5.037,5.607-5.037
			h1.475v2.948h-1.475c-1.261,0-2.593,1.022-2.657,2.015l2.287,18.235c0,1.152,0.936,2.089,2.087,2.089h1.475V208.206
			L134.729,208.206z"/>
		<path fill="#E73D1F" d="M207.583,208.206h-1.476v-2.949h1.476c1.15,0,2.088-0.937,2.088-2.088l0.017-0.185l2.271-18.05
			c-0.062-0.992-1.396-2.015-2.656-2.015h-1.477v-2.949h1.477c2.646,0,5.607,2.155,5.607,5.038l-0.012,0.185l-2.279,18.076
			C212.563,206.001,210.326,208.206,207.583,208.206z"/>
		<polygon fill="#F5F5F5" points="177.005,221.696 163.526,221.696 162.053,223.171 162.053,236.393 163.526,237.867 
			177.005,237.867 178.48,236.393 178.48,223.171 		"/>
		<circle fill="#F2F4F9" cx="185.993" cy="190.047" r="2.355"/>
		<circle fill="#F2F4F9" cx="153.634" cy="190.047" r="2.355"/>
		<path fill="#E73D1F" d="M185.993,194.255c-2.32,0-4.208-1.888-4.208-4.209c0-2.32,1.888-4.208,4.208-4.208
			c2.323,0,4.21,1.888,4.21,4.208C190.203,192.367,188.316,194.255,185.993,194.255z M185.993,188.787
			c-0.693,0-1.261,0.565-1.261,1.26c0,0.695,0.565,1.261,1.261,1.261c0.697,0,1.262-0.564,1.262-1.261
			C187.255,189.352,186.69,188.787,185.993,188.787z"/>
		<path fill="#E73D1F" d="M153.634,194.255c-2.321,0-4.21-1.888-4.21-4.209c0-2.32,1.889-4.208,4.21-4.208
			c2.322,0,4.208,1.888,4.208,4.208C157.843,192.367,155.956,194.255,153.634,194.255z M153.634,188.787
			c-0.696,0-1.261,0.565-1.261,1.26c0,0.695,0.564,1.261,1.261,1.261c0.694,0,1.26-0.564,1.26-1.261
			C154.894,189.352,154.33,188.787,153.634,188.787z"/>
		<path fill="none" d="M241.357,293.436l-41.638-34.293c-1.51,15.023-14.229,26.793-29.646,26.793s-28.132-11.77-29.643-26.793
			L98.726,293.49l-5.714,4.148c-2.08,2.24-3.223,5.152-3.223,8.215v30.453c0,6.661,5.42,12.086,12.084,12.086h136.405
			c6.663,0,12.083-5.425,12.083-12.086v-30.453c0-3.062-1.142-5.975-3.224-8.213L241.357,293.436z"/>
		<path fill="#E73D1F" d="M249.191,295.518l-0.204-0.182l-5.791-4.206l-43.865-36.127l-0.128,0.062h-11.6V238.9h-2.947v17.638
			l1.474,1.474h10.723c-0.971,13.932-12.604,24.975-26.771,24.975c-14.196,0-25.847-11.077-26.775-25.045h10.738l1.475-1.477
			v-17.638h-2.948v16.164h-11.767v0.03l-43.842,36.104l-5.792,4.208l-0.205,0.178c-2.656,2.812-4.121,6.479-4.121,10.343v30.453
			c0,8.285,6.744,15.03,15.033,15.03h136.405c8.288,0,15.032-6.745,15.032-15.03v-30.453
			C253.314,301.993,251.85,298.321,249.191,295.518z M250.364,336.309c0,6.664-5.419,12.086-12.084,12.086H101.875
			c-6.663-0.002-12.084-5.422-12.084-12.086v-30.453c0-3.062,1.144-5.973,3.223-8.213l5.714-4.147l41.709-34.353
			c1.509,15.023,14.229,26.793,29.644,26.793c15.413,0,28.132-11.768,29.64-26.793l41.639,34.295l5.785,4.205
			c2.078,2.242,3.222,5.154,3.222,8.213L250.364,336.309L250.364,336.309z"/>
		<rect x="167.729" y="228.244" fill="#E73D1F" width="5.077" height="2.949"/>
	</g>
</g>
</svg>
