<?xml version="1.0" encoding="utf-8"?>
<!-- Generator: Adobe Illustrator 21.0.0, SVG Export Plug-In . SVG Version: 6.00 Build 0)  -->
<svg version="1.1" id="Livello_1" xmlns="http://www.w3.org/2000/svg" xmlns:xlink="http://www.w3.org/1999/xlink" x="0px" y="0px"
	 viewBox="0 0 45.8 45.8" style="enable-background:new 0 0 45.8 45.8;" xml:space="preserve">
<g>
	<g>
		<path d="M37.5,15.3c0,0.3,0,0.7,0,1c0,10.1-7.6,21.8-21.4,21.8c-4.2,0-8.2-1.3-11.5-3.4c0.6,0.1,1.2,0.1,1.8,0.1
			c3.5,0,6.8-1.2,9.3-3.3c-3.3-0.1-6.1-2.3-7-5.3c0.5,0.1,0.9,0.1,1.4,0.1c0.7,0,1.4-0.1,2-0.3c-3.4-0.7-6-3.8-6-7.5v-0.1
			c1,0.6,2.2,0.9,3.4,1c-2-1.4-3.3-3.7-3.3-6.4c0-1.4,0.4-2.7,1-3.8c3.7,4.6,9.3,7.7,15.5,8c-0.1-0.6-0.2-1.1-0.2-1.7
			c0-4.2,3.4-7.7,7.5-7.7c2.2,0,4.1,0.9,5.5,2.4c1.7-0.3,3.3-1,4.8-1.9c-0.6,1.8-1.8,3.3-3.3,4.2c1.5-0.2,3-0.6,4.3-1.2
			C40.2,12.9,39,14.2,37.5,15.3 M38.2,0H7.6C3.4,0,0,3.4,0,7.6v30.5c0,4.2,3.4,7.6,7.6,7.6h30.5c4.2,0,7.6-3.4,7.6-7.6V7.6
			C45.8,3.4,42.4,0,38.2,0"/>
	</g>
</g>
</svg>
